# xmcd
#
# Track frame offsets:
#	150
#	14347
#	26931
#	40626
#	57393
#	72385
#	89717
#	106568
#	122823
#	143846
#	156123
#	170997
#	191875
#	210807
#	229492
#	240120
#	251599
#	269589
#
# Disc length: 3739 seconds
#
# Revision: 1
# Processed by: cddbd v1.4PL0 Copyright (c) Steve Scherf et al.
# Submitted via: audiograbber 1.82.00
#
DISCID=030e9912
DTITLE=Various Artist - Music of Brazil
DYEAR=1900
DGENRE=Country
TTITLE0=Russell Barroso - Brazil
TTITLE1=Oliver Benichou - Fiesta A Rio
TTITLE2=Reyes Ballardo - Bambolea
TTITLE3=Maria - Dnando Lambada
TTITLE4=Palva Cruz - Diz Que Tem
TTITLE5=Hermosia - Llorando Se Fue
TTITLE6=Jobim - Dindi
TTITLE7=Oliver Benichou - Meu Amig Irmao
TTITLE8=Tareau De Souza - Croioulo O Zouk
TTITLE9=Oliver Benichou - Me Leva Ao Carnaval
TTITLE10=Trad.arr Tareau - Bambo Do Bambo
TTITLE11=Jobim - The Girl From Ipanema
TTITLE12=Tareau De Souza - Dancar
TTITLE13=Jobim - Mojave
TTITLE14=Tareau De Souza - Bahia Danca Yoyo
TTITLE15=Gutierrez - Rio Brazil
TTITLE16=Trad.arr Tareau - Ti-Bo D'Amour
TTITLE17=Jobim - She's a Carioca
EXTD=
EXTT0=
EXTT1=
EXTT2=
EXTT3=
EXTT4=
EXTT5=
EXTT6=
EXTT7=
EXTT8=
EXTT9=
EXTT10=
EXTT11=
EXTT12=
EXTT13=
EXTT14=
EXTT15=
EXTT16=
EXTT17=
PLAYORDER=
